<?xml version="1.0" encoding="UTF-8"?><svg id="Group_23" xmlns="http://www.w3.org/2000/svg" viewBox="0 0 15.33 20.09"><defs><style>.cls-1{fill:#fff;}</style></defs><path id="Path_52" class="cls-1" d="M1.74,20.09c-.34,0-.68-.11-.95-.31-.46-.34-.73-.87-.72-1.44C.07,16.05,.03,7.6,0,3.72,0,2.71,.38,1.74,1.09,1.02,1.73,.37,2.6,0,3.51,0H11.81c1.99,.05,3.56,1.7,3.51,3.69,0,3.87,0,13.04-.02,14.53,0,.56-.28,1.08-.73,1.4-.42,.3-.96,.39-1.45,.23-.08-.03-.15-.07-.22-.12-2.07-1.69-4.38-3.53-5.18-4.1-.8,.58-3.15,2.48-5.25,4.24-.06,.05-.14,.09-.21,.12-.17,.06-.34,.09-.52,.09Z"/></svg>